<?xml version="1.0" encoding="utf-8"?>
<svg xmlns="http://www.w3.org/2000/svg" xmlns:xlink="http://www.w3.org/1999/xlink" width="600" height="400" viewBox="0 0 2400 1600">
<defs>
  <clipPath id="clip430">
    <rect x="0" y="0" width="2400" height="1600"/>
  </clipPath>
</defs>
<path clip-path="url(#clip430)" d="
M0 1600 L2400 1600 L2400 0 L0 0  Z
  " fill="#ffffff" fill-rule="evenodd" fill-opacity="1"/>
<defs>
  <clipPath id="clip431">
    <rect x="480" y="0" width="1681" height="1600"/>
  </clipPath>
</defs>
<path clip-path="url(#clip430)" d="
M102.74 1505.26 L2352.76 1505.26 L2352.76 47.2441 L102.74 47.2441  Z
  " fill="#ffffff" fill-rule="evenodd" fill-opacity="1"/>
<defs>
  <clipPath id="clip432">
    <rect x="102" y="47" width="2251" height="1459"/>
  </clipPath>
</defs>
<polyline clip-path="url(#clip432)" style="stroke:#000000; stroke-width:2; stroke-opacity:0.1; fill:none" points="
  590.951,1505.26 590.951,47.2441 
  "/>
<polyline clip-path="url(#clip432)" style="stroke:#000000; stroke-width:2; stroke-opacity:0.1; fill:none" points="
  1121.62,1505.26 1121.62,47.2441 
  "/>
<polyline clip-path="url(#clip432)" style="stroke:#000000; stroke-width:2; stroke-opacity:0.1; fill:none" points="
  1652.28,1505.26 1652.28,47.2441 
  "/>
<polyline clip-path="url(#clip432)" style="stroke:#000000; stroke-width:2; stroke-opacity:0.1; fill:none" points="
  2182.94,1505.26 2182.94,47.2441 
  "/>
<polyline clip-path="url(#clip430)" style="stroke:#000000; stroke-width:4; stroke-opacity:1; fill:none" points="
  102.74,1505.26 2352.76,1505.26 
  "/>
<polyline clip-path="url(#clip430)" style="stroke:#000000; stroke-width:4; stroke-opacity:1; fill:none" points="
  590.951,1505.26 590.951,1487.76 
  "/>
<polyline clip-path="url(#clip430)" style="stroke:#000000; stroke-width:4; stroke-opacity:1; fill:none" points="
  1121.62,1505.26 1121.62,1487.76 
  "/>
<polyline clip-path="url(#clip430)" style="stroke:#000000; stroke-width:4; stroke-opacity:1; fill:none" points="
  1652.28,1505.26 1652.28,1487.76 
  "/>
<polyline clip-path="url(#clip430)" style="stroke:#000000; stroke-width:4; stroke-opacity:1; fill:none" points="
  2182.94,1505.26 2182.94,1487.76 
  "/>
<path clip-path="url(#clip430)" d="M 0 0 M581.229 1531.37 L599.585 1531.37 L599.585 1535.31 L585.511 1535.31 L585.511 1543.78 Q586.53 1543.43 587.548 1543.27 Q588.567 1543.08 589.585 1543.08 Q595.372 1543.08 598.752 1546.26 Q602.132 1549.43 602.132 1554.84 Q602.132 1560.42 598.659 1563.52 Q595.187 1566.6 588.868 1566.6 Q586.692 1566.6 584.423 1566.23 Q582.178 1565.86 579.771 1565.12 L579.771 1560.42 Q581.854 1561.56 584.076 1562.11 Q586.298 1562.67 588.775 1562.67 Q592.78 1562.67 595.118 1560.56 Q597.456 1558.46 597.456 1554.84 Q597.456 1551.23 595.118 1549.13 Q592.78 1547.02 588.775 1547.02 Q586.9 1547.02 585.025 1547.44 Q583.173 1547.85 581.229 1548.73 L581.229 1531.37 Z" fill="#000000" fill-rule="evenodd" fill-opacity="1" /><path clip-path="url(#clip430)" d="M 0 0 M1098.49 1562 L1106.13 1562 L1106.13 1535.63 L1097.82 1537.3 L1097.82 1533.04 L1106.08 1531.37 L1110.76 1531.37 L1110.76 1562 L1118.4 1562 L1118.4 1565.93 L1098.49 1565.93 L1098.49 1562 Z" fill="#000000" fill-rule="evenodd" fill-opacity="1" /><path clip-path="url(#clip430)" d="M 0 0 M1133.47 1534.45 Q1129.86 1534.45 1128.03 1538.02 Q1126.22 1541.56 1126.22 1548.69 Q1126.22 1555.79 1128.03 1559.36 Q1129.86 1562.9 1133.47 1562.9 Q1137.1 1562.9 1138.91 1559.36 Q1140.74 1555.79 1140.74 1548.69 Q1140.74 1541.56 1138.91 1538.02 Q1137.1 1534.45 1133.47 1534.45 M1133.47 1530.75 Q1139.28 1530.75 1142.33 1535.35 Q1145.41 1539.94 1145.41 1548.69 Q1145.41 1557.41 1142.33 1562.02 Q1139.28 1566.6 1133.47 1566.6 Q1127.66 1566.6 1124.58 1562.02 Q1121.52 1557.41 1121.52 1548.69 Q1121.52 1539.94 1124.58 1535.35 Q1127.66 1530.75 1133.47 1530.75 Z" fill="#000000" fill-rule="evenodd" fill-opacity="1" /><path clip-path="url(#clip430)" d="M 0 0 M1629.65 1562 L1637.29 1562 L1637.29 1535.63 L1628.98 1537.3 L1628.98 1533.04 L1637.24 1531.37 L1641.92 1531.37 L1641.92 1562 L1649.56 1562 L1649.56 1565.93 L1629.65 1565.93 L1629.65 1562 Z" fill="#000000" fill-rule="evenodd" fill-opacity="1" /><path clip-path="url(#clip430)" d="M 0 0 M1654.68 1531.37 L1673.03 1531.37 L1673.03 1535.31 L1658.96 1535.31 L1658.96 1543.78 Q1659.98 1543.43 1660.99 1543.27 Q1662.01 1543.08 1663.03 1543.08 Q1668.82 1543.08 1672.2 1546.26 Q1675.58 1549.43 1675.58 1554.84 Q1675.58 1560.42 1672.11 1563.52 Q1668.63 1566.6 1662.31 1566.6 Q1660.14 1566.6 1657.87 1566.23 Q1655.62 1565.86 1653.22 1565.12 L1653.22 1560.42 Q1655.3 1561.56 1657.52 1562.11 Q1659.74 1562.67 1662.22 1562.67 Q1666.23 1562.67 1668.56 1560.56 Q1670.9 1558.46 1670.9 1554.84 Q1670.9 1551.23 1668.56 1549.13 Q1666.23 1547.02 1662.22 1547.02 Q1660.35 1547.02 1658.47 1547.44 Q1656.62 1547.85 1654.68 1548.73 L1654.68 1531.37 Z" fill="#000000" fill-rule="evenodd" fill-opacity="1" /><path clip-path="url(#clip430)" d="M 0 0 M2164.09 1562 L2180.41 1562 L2180.41 1565.93 L2158.46 1565.93 L2158.46 1562 Q2161.13 1559.24 2165.71 1554.61 Q2170.32 1549.96 2171.5 1548.62 Q2173.74 1546.09 2174.62 1544.36 Q2175.52 1542.6 2175.52 1540.91 Q2175.52 1538.15 2173.58 1536.42 Q2171.66 1534.68 2168.56 1534.68 Q2166.36 1534.68 2163.9 1535.45 Q2161.47 1536.21 2158.7 1537.76 L2158.7 1533.04 Q2161.52 1531.9 2163.97 1531.33 Q2166.43 1530.75 2168.46 1530.75 Q2173.83 1530.75 2177.03 1533.43 Q2180.22 1536.12 2180.22 1540.61 Q2180.22 1542.74 2179.41 1544.66 Q2178.63 1546.56 2176.52 1549.15 Q2175.94 1549.82 2172.84 1553.04 Q2169.74 1556.23 2164.09 1562 Z" fill="#000000" fill-rule="evenodd" fill-opacity="1" /><path clip-path="url(#clip430)" d="M 0 0 M2195.48 1534.45 Q2191.87 1534.45 2190.04 1538.02 Q2188.23 1541.56 2188.23 1548.69 Q2188.23 1555.79 2190.04 1559.36 Q2191.87 1562.9 2195.48 1562.9 Q2199.11 1562.9 2200.92 1559.36 Q2202.75 1555.79 2202.75 1548.69 Q2202.75 1541.56 2200.92 1538.02 Q2199.11 1534.45 2195.48 1534.45 M2195.48 1530.75 Q2201.29 1530.75 2204.34 1535.35 Q2207.42 1539.94 2207.42 1548.69 Q2207.42 1557.41 2204.34 1562.02 Q2201.29 1566.6 2195.48 1566.6 Q2189.67 1566.6 2186.59 1562.02 Q2183.53 1557.41 2183.53 1548.69 Q2183.53 1539.94 2186.59 1535.35 Q2189.67 1530.75 2195.48 1530.75 Z" fill="#000000" fill-rule="evenodd" fill-opacity="1" /><path clip-path="url(#clip430)" d="M 0 0 M1098.73 1604.35 L1098.73 1614.48 L1110.79 1614.48 L1110.79 1619.03 L1098.73 1619.03 L1098.73 1638.38 Q1098.73 1642.74 1099.91 1643.98 Q1101.12 1645.22 1104.78 1645.22 L1110.79 1645.22 L1110.79 1650.12 L1104.78 1650.12 Q1098 1650.12 1095.42 1647.61 Q1092.84 1645.06 1092.84 1638.38 L1092.84 1619.03 L1088.55 1619.03 L1088.55 1614.48 L1092.84 1614.48 L1092.84 1604.35 L1098.73 1604.35 Z" fill="#000000" fill-rule="evenodd" fill-opacity="1" /><path clip-path="url(#clip430)" d="M 0 0 M1116.94 1614.48 L1122.79 1614.48 L1122.79 1650.12 L1116.94 1650.12 L1116.94 1614.48 M1116.94 1600.6 L1122.79 1600.6 L1122.79 1608.01 L1116.94 1608.01 L1116.94 1600.6 Z" fill="#000000" fill-rule="evenodd" fill-opacity="1" /><path clip-path="url(#clip430)" d="M 0 0 M1156.69 1621.32 Q1158.89 1617.37 1161.94 1615.49 Q1165 1613.62 1169.14 1613.62 Q1174.71 1613.62 1177.73 1617.53 Q1180.75 1621.41 1180.75 1628.61 L1180.75 1650.12 L1174.86 1650.12 L1174.86 1628.8 Q1174.86 1623.67 1173.05 1621.19 Q1171.24 1618.71 1167.51 1618.71 Q1162.96 1618.71 1160.32 1621.73 Q1157.68 1624.76 1157.68 1629.98 L1157.68 1650.12 L1151.79 1650.12 L1151.79 1628.8 Q1151.79 1623.64 1149.98 1621.19 Q1148.16 1618.71 1144.37 1618.71 Q1139.89 1618.71 1137.24 1621.76 Q1134.6 1624.79 1134.6 1629.98 L1134.6 1650.12 L1128.71 1650.12 L1128.71 1614.48 L1134.6 1614.48 L1134.6 1620.01 Q1136.61 1616.74 1139.41 1615.18 Q1142.21 1613.62 1146.06 1613.62 Q1149.94 1613.62 1152.65 1615.59 Q1155.39 1617.56 1156.69 1621.32 Z" fill="#000000" fill-rule="evenodd" fill-opacity="1" /><path clip-path="url(#clip430)" d="M 0 0 M1217.39 1630.84 L1217.39 1633.7 L1190.46 1633.7 Q1190.84 1639.75 1194.09 1642.93 Q1197.37 1646.08 1203.19 1646.08 Q1206.57 1646.08 1209.72 1645.25 Q1212.9 1644.43 1216.02 1642.77 L1216.02 1648.31 Q1212.87 1649.65 1209.56 1650.35 Q1206.25 1651.05 1202.84 1651.05 Q1194.31 1651.05 1189.32 1646.08 Q1184.35 1641.12 1184.35 1632.65 Q1184.35 1623.9 1189.06 1618.77 Q1193.8 1613.62 1201.82 1613.62 Q1209.02 1613.62 1213.19 1618.26 Q1217.39 1622.88 1217.39 1630.84 M1211.53 1629.12 Q1211.47 1624.31 1208.83 1621.45 Q1206.22 1618.58 1201.89 1618.58 Q1196.99 1618.58 1194.03 1621.35 Q1191.1 1624.12 1190.65 1629.15 L1211.53 1629.12 Z" fill="#000000" fill-rule="evenodd" fill-opacity="1" /><path clip-path="url(#clip430)" d="M 0 0 M1220.57 1629.66 L1237.73 1629.66 L1237.73 1634.88 L1220.57 1634.88 L1220.57 1629.66 Z" fill="#000000" fill-rule="evenodd" fill-opacity="1" /><path clip-path="url(#clip430)" d="M 0 0 M1266.59 1615.53 L1266.59 1621.06 Q1264.11 1619.79 1261.44 1619.15 Q1258.76 1618.52 1255.9 1618.52 Q1251.54 1618.52 1249.34 1619.85 Q1247.18 1621.19 1247.18 1623.87 Q1247.18 1625.9 1248.74 1627.08 Q1250.3 1628.23 1255.01 1629.28 L1257.01 1629.72 Q1263.25 1631.06 1265.86 1633.51 Q1268.5 1635.93 1268.5 1640.29 Q1268.5 1645.25 1264.56 1648.15 Q1260.64 1651.05 1253.77 1651.05 Q1250.9 1651.05 1247.78 1650.47 Q1244.7 1649.93 1241.26 1648.82 L1241.26 1642.77 Q1244.51 1644.46 1247.66 1645.32 Q1250.81 1646.15 1253.9 1646.15 Q1258.03 1646.15 1260.26 1644.74 Q1262.49 1643.31 1262.49 1640.73 Q1262.49 1638.35 1260.87 1637.07 Q1259.27 1635.8 1253.83 1634.62 L1251.79 1634.15 Q1246.35 1633 1243.93 1630.64 Q1241.51 1628.26 1241.51 1624.12 Q1241.51 1619.09 1245.08 1616.35 Q1248.64 1613.62 1255.2 1613.62 Q1258.45 1613.62 1261.31 1614.09 Q1264.18 1614.57 1266.59 1615.53 Z" fill="#000000" fill-rule="evenodd" fill-opacity="1" /><path clip-path="url(#clip430)" d="M 0 0 M1280.44 1604.35 L1280.44 1614.48 L1292.5 1614.48 L1292.5 1619.03 L1280.44 1619.03 L1280.44 1638.38 Q1280.44 1642.74 1281.62 1643.98 Q1282.83 1645.22 1286.49 1645.22 L1292.5 1645.22 L1292.5 1650.12 L1286.49 1650.12 Q1279.71 1650.12 1277.13 1647.61 Q1274.55 1645.06 1274.55 1638.38 L1274.55 1619.03 L1270.26 1619.03 L1270.26 1614.48 L1274.55 1614.48 L1274.55 1604.35 L1280.44 1604.35 Z" fill="#000000" fill-rule="evenodd" fill-opacity="1" /><path clip-path="url(#clip430)" d="M 0 0 M1329.14 1630.84 L1329.14 1633.7 L1302.21 1633.7 Q1302.59 1639.75 1305.84 1642.93 Q1309.12 1646.08 1314.94 1646.08 Q1318.32 1646.08 1321.47 1645.25 Q1324.65 1644.43 1327.77 1642.77 L1327.77 1648.31 Q1324.62 1649.65 1321.31 1650.35 Q1318 1651.05 1314.59 1651.05 Q1306.06 1651.05 1301.07 1646.08 Q1296.1 1641.12 1296.1 1632.65 Q1296.1 1623.9 1300.81 1618.77 Q1305.55 1613.62 1313.57 1613.62 Q1320.77 1613.62 1324.94 1618.26 Q1329.14 1622.88 1329.14 1630.84 M1323.28 1629.12 Q1323.22 1624.31 1320.58 1621.45 Q1317.97 1618.58 1313.64 1618.58 Q1308.74 1618.58 1305.78 1621.35 Q1302.85 1624.12 1302.4 1629.15 L1323.28 1629.12 Z" fill="#000000" fill-rule="evenodd" fill-opacity="1" /><path clip-path="url(#clip430)" d="M 0 0 M1340.95 1644.78 L1340.95 1663.68 L1335.06 1663.68 L1335.06 1614.48 L1340.95 1614.48 L1340.95 1619.89 Q1342.79 1616.7 1345.59 1615.18 Q1348.43 1613.62 1352.34 1613.62 Q1358.83 1613.62 1362.88 1618.77 Q1366.95 1623.93 1366.95 1632.33 Q1366.95 1640.73 1362.88 1645.89 Q1358.83 1651.05 1352.34 1651.05 Q1348.43 1651.05 1345.59 1649.52 Q1342.79 1647.96 1340.95 1644.78 M1360.87 1632.33 Q1360.87 1625.87 1358.2 1622.21 Q1355.56 1618.52 1350.91 1618.52 Q1346.26 1618.52 1343.59 1622.21 Q1340.95 1625.87 1340.95 1632.33 Q1340.95 1638.79 1343.59 1642.48 Q1346.26 1646.15 1350.91 1646.15 Q1355.56 1646.15 1358.2 1642.48 Q1360.87 1638.79 1360.87 1632.33 Z" fill="#000000" fill-rule="evenodd" fill-opacity="1" /><polyline clip-path="url(#clip432)" style="stroke:#000000; stroke-width:2; stroke-opacity:0.1; fill:none" points="
  102.74,1220.63 2352.76,1220.63 
  "/>
<polyline clip-path="url(#clip432)" style="stroke:#000000; stroke-width:2; stroke-opacity:0.1; fill:none" points="
  102.74,878.869 2352.76,878.869 
  "/>
<polyline clip-path="url(#clip432)" style="stroke:#000000; stroke-width:2; stroke-opacity:0.1; fill:none" points="
  102.74,537.107 2352.76,537.107 
  "/>
<polyline clip-path="url(#clip432)" style="stroke:#000000; stroke-width:2; stroke-opacity:0.1; fill:none" points="
  102.74,195.346 2352.76,195.346 
  "/>
<polyline clip-path="url(#clip430)" style="stroke:#000000; stroke-width:4; stroke-opacity:1; fill:none" points="
  102.74,1505.26 102.74,47.2441 
  "/>
<polyline clip-path="url(#clip430)" style="stroke:#000000; stroke-width:4; stroke-opacity:1; fill:none" points="
  102.74,1220.63 129.74,1220.63 
  "/>
<polyline clip-path="url(#clip430)" style="stroke:#000000; stroke-width:4; stroke-opacity:1; fill:none" points="
  102.74,878.869 129.74,878.869 
  "/>
<polyline clip-path="url(#clip430)" style="stroke:#000000; stroke-width:4; stroke-opacity:1; fill:none" points="
  102.74,537.107 129.74,537.107 
  "/>
<polyline clip-path="url(#clip430)" style="stroke:#000000; stroke-width:4; stroke-opacity:1; fill:none" points="
  102.74,195.346 129.74,195.346 
  "/>
<path clip-path="url(#clip430)" d="M 0 0 M9.56454 1221.08 L39.2403 1221.08 L39.2403 1225.02 L9.56454 1225.02 L9.56454 1221.08 Z" fill="#000000" fill-rule="evenodd" fill-opacity="1" /><path clip-path="url(#clip430)" d="M 0 0 M57.1569 1207.42 L45.3514 1225.87 L57.1569 1225.87 L57.1569 1207.42 M55.93 1203.35 L61.8096 1203.35 L61.8096 1225.87 L66.7402 1225.87 L66.7402 1229.76 L61.8096 1229.76 L61.8096 1237.91 L57.1569 1237.91 L57.1569 1229.76 L41.5551 1229.76 L41.5551 1225.25 L55.93 1203.35 Z" fill="#000000" fill-rule="evenodd" fill-opacity="1" /><path clip-path="url(#clip430)" d="M 0 0 M11.6479 879.32 L41.3236 879.32 L41.3236 883.255 L11.6479 883.255 L11.6479 879.32 Z" fill="#000000" fill-rule="evenodd" fill-opacity="1" /><path clip-path="url(#clip430)" d="M 0 0 M50.4208 892.214 L66.7402 892.214 L66.7402 896.149 L44.7958 896.149 L44.7958 892.214 Q47.4579 889.459 52.0412 884.829 Q56.6476 880.177 57.8282 878.834 Q60.0735 876.311 60.9532 874.575 Q61.8559 872.815 61.8559 871.126 Q61.8559 868.371 59.9115 866.635 Q57.9902 864.899 54.8884 864.899 Q52.6893 864.899 50.2356 865.663 Q47.8051 866.427 45.0273 867.978 L45.0273 863.255 Q47.8514 862.121 50.3051 861.542 Q52.7588 860.964 54.7958 860.964 Q60.1661 860.964 63.3605 863.649 Q66.555 866.334 66.555 870.825 Q66.555 872.954 65.7448 874.876 Q64.9578 876.774 62.8513 879.366 Q62.2726 880.038 59.1708 883.255 Q56.0689 886.45 50.4208 892.214 Z" fill="#000000" fill-rule="evenodd" fill-opacity="1" /><path clip-path="url(#clip430)" d="M 0 0 M54.7958 522.906 Q51.1847 522.906 49.356 526.471 Q47.5504 530.012 47.5504 537.142 Q47.5504 544.248 49.356 547.813 Q51.1847 551.355 54.7958 551.355 Q58.43 551.355 60.2356 547.813 Q62.0643 544.248 62.0643 537.142 Q62.0643 530.012 60.2356 526.471 Q58.43 522.906 54.7958 522.906 M54.7958 519.202 Q60.6059 519.202 63.6615 523.809 Q66.7402 528.392 66.7402 537.142 Q66.7402 545.869 63.6615 550.475 Q60.6059 555.058 54.7958 555.058 Q48.9856 555.058 45.9069 550.475 Q42.8514 545.869 42.8514 537.142 Q42.8514 528.392 45.9069 523.809 Q48.9856 519.202 54.7958 519.202 Z" fill="#000000" fill-rule="evenodd" fill-opacity="1" /><path clip-path="url(#clip430)" d="M 0 0 M50.4208 208.69 L66.7402 208.69 L66.7402 212.626 L44.7958 212.626 L44.7958 208.69 Q47.4579 205.936 52.0412 201.306 Q56.6476 196.653 57.8282 195.311 Q60.0735 192.788 60.9532 191.052 Q61.8559 189.292 61.8559 187.603 Q61.8559 184.848 59.9115 183.112 Q57.9902 181.376 54.8884 181.376 Q52.6893 181.376 50.2356 182.14 Q47.8051 182.903 45.0273 184.454 L45.0273 179.732 Q47.8514 178.598 50.3051 178.019 Q52.7588 177.441 54.7958 177.441 Q60.1661 177.441 63.3605 180.126 Q66.555 182.811 66.555 187.302 Q66.555 189.431 65.7448 191.353 Q64.9578 193.251 62.8513 195.843 Q62.2726 196.515 59.1708 199.732 Q56.0689 202.927 50.4208 208.69 Z" fill="#000000" fill-rule="evenodd" fill-opacity="1" /><path clip-path="url(#clip430)" d="M 0 0 M-83.851 854.518 Q-83.851 861.521 -78.6311 865.658 Q-73.4112 869.764 -64.4037 869.764 Q-55.4281 869.764 -50.2082 865.658 Q-44.9883 861.521 -44.9883 854.518 Q-44.9883 847.516 -50.2082 843.442 Q-55.4281 839.336 -64.4037 839.336 Q-73.4112 839.336 -78.6311 843.442 Q-83.851 847.516 -83.851 854.518 M-89.0708 854.518 Q-89.0708 844.524 -82.355 838.54 Q-75.671 832.557 -64.4037 832.557 Q-53.1682 832.557 -46.4524 838.54 Q-39.7684 844.524 -39.7684 854.518 Q-39.7684 864.544 -46.4524 870.56 Q-53.1364 876.544 -64.4037 876.544 Q-75.671 876.544 -82.355 870.56 Q-89.0708 864.544 -89.0708 854.518 Z" fill="#000000" fill-rule="evenodd" fill-opacity="1" /><path clip-path="url(#clip430)" d="M 0 0 M-54.7597 827.018 L-76.3394 827.018 L-76.3394 821.162 L-54.9825 821.162 Q-49.9217 821.162 -47.3755 819.189 Q-44.861 817.215 -44.861 813.269 Q-44.861 808.526 -47.8847 805.789 Q-50.9084 803.02 -56.1283 803.02 L-76.3394 803.02 L-76.3394 797.163 L-40.6915 797.163 L-40.6915 803.02 L-46.166 803.02 Q-42.9195 805.152 -41.328 807.985 Q-39.7684 810.786 -39.7684 814.51 Q-39.7684 820.653 -43.5879 823.836 Q-47.4073 827.018 -54.7597 827.018 M-77.1988 812.282 L-77.1988 812.282 Z" fill="#000000" fill-rule="evenodd" fill-opacity="1" /><path clip-path="url(#clip430)" d="M 0 0 M-86.4609 785.228 L-76.3394 785.228 L-76.3394 773.165 L-71.7879 773.165 L-71.7879 785.228 L-52.4362 785.228 Q-48.0757 785.228 -46.8344 784.05 Q-45.5931 782.84 -45.5931 779.18 L-45.5931 773.165 L-40.6915 773.165 L-40.6915 779.18 Q-40.6915 785.96 -43.2059 788.538 Q-45.7522 791.116 -52.4362 791.116 L-71.7879 791.116 L-71.7879 795.413 L-76.3394 795.413 L-76.3394 791.116 L-86.4609 791.116 L-86.4609 785.228 Z" fill="#000000" fill-rule="evenodd" fill-opacity="1" /><path clip-path="url(#clip430)" d="M 0 0 M-46.0387 761.356 L-27.1325 761.356 L-27.1325 767.244 L-76.3394 767.244 L-76.3394 761.356 L-70.9286 761.356 Q-74.1114 759.51 -75.6392 756.709 Q-77.1988 753.877 -77.1988 749.962 Q-77.1988 743.469 -72.0426 739.426 Q-66.8863 735.352 -58.4836 735.352 Q-50.0809 735.352 -44.9247 739.426 Q-39.7684 743.469 -39.7684 749.962 Q-39.7684 753.877 -41.2962 756.709 Q-42.8558 759.51 -46.0387 761.356 M-58.4836 741.432 Q-64.9448 741.432 -68.6051 744.105 Q-72.2972 746.747 -72.2972 751.394 Q-72.2972 756.041 -68.6051 758.714 Q-64.9448 761.356 -58.4836 761.356 Q-52.0224 761.356 -48.3303 758.714 Q-44.67 756.041 -44.67 751.394 Q-44.67 746.747 -48.3303 744.105 Q-52.0224 741.432 -58.4836 741.432 Z" fill="#000000" fill-rule="evenodd" fill-opacity="1" /><path clip-path="url(#clip430)" d="M 0 0 M-54.7597 729.814 L-76.3394 729.814 L-76.3394 723.958 L-54.9825 723.958 Q-49.9217 723.958 -47.3755 721.984 Q-44.861 720.011 -44.861 716.064 Q-44.861 711.322 -47.8847 708.585 Q-50.9084 705.815 -56.1283 705.815 L-76.3394 705.815 L-76.3394 699.959 L-40.6915 699.959 L-40.6915 705.815 L-46.166 705.815 Q-42.9195 707.948 -41.328 710.781 Q-39.7684 713.582 -39.7684 717.306 Q-39.7684 723.448 -43.5879 726.631 Q-47.4073 729.814 -54.7597 729.814 M-77.1988 715.078 L-77.1988 715.078 Z" fill="#000000" fill-rule="evenodd" fill-opacity="1" /><path clip-path="url(#clip430)" d="M 0 0 M-86.4609 688.023 L-76.3394 688.023 L-76.3394 675.96 L-71.7879 675.96 L-71.7879 688.023 L-52.4362 688.023 Q-48.0757 688.023 -46.8344 686.846 Q-45.5931 685.636 -45.5931 681.976 L-45.5931 675.96 L-40.6915 675.96 L-40.6915 681.976 Q-40.6915 688.755 -43.2059 691.333 Q-45.7522 693.912 -52.4362 693.912 L-71.7879 693.912 L-71.7879 698.208 L-76.3394 698.208 L-76.3394 693.912 L-86.4609 693.912 L-86.4609 688.023 Z" fill="#000000" fill-rule="evenodd" fill-opacity="1" /><polyline clip-path="url(#clip432)" style="stroke:#009af9; stroke-width:12; stroke-opacity:1; fill:none" points="
  166.42,537.107 272.553,521.151 378.685,582.622 484.818,838.678 590.951,1081.39 697.084,871.622 803.217,1003.97 909.35,1212.14 1015.48,994.201 1121.62,1036.85 
  1227.75,1355.33 1333.88,1464 1440.01,1217.66 1546.15,1178.59 1652.28,1264.19 1758.41,1240.37 1864.54,1030.54 1970.68,460.062 2076.81,223.603 2182.94,311.203 
  2289.08,88.5087 
  "/>
<path clip-path="url(#clip432)" d="M166.42 553.107 L155.108 548.419 L150.42 537.107 L155.108 525.795 L166.42 521.107 L177.732 525.795 L182.42 537.107 L177.732 548.419 Z" fill="#009af9" fill-rule="evenodd" fill-opacity="1" stroke="#000000" stroke-opacity="1" stroke-width="3.2"/>
<path clip-path="url(#clip432)" d="M272.553 537.151 L261.241 532.463 L256.553 521.151 L261.241 509.839 L272.553 505.151 L283.865 509.839 L288.553 521.151 L283.865 532.463 Z" fill="#009af9" fill-rule="evenodd" fill-opacity="1" stroke="#000000" stroke-opacity="1" stroke-width="3.2"/>
<path clip-path="url(#clip432)" d="M378.685 598.622 L367.373 593.934 L362.685 582.622 L367.373 571.31 L378.685 566.622 L389.997 571.31 L394.685 582.622 L389.997 593.934 Z" fill="#009af9" fill-rule="evenodd" fill-opacity="1" stroke="#000000" stroke-opacity="1" stroke-width="3.2"/>
<path clip-path="url(#clip432)" d="M484.818 854.678 L473.506 849.99 L468.818 838.678 L473.506 827.366 L484.818 822.678 L496.13 827.366 L500.818 838.678 L496.13 849.99 Z" fill="#009af9" fill-rule="evenodd" fill-opacity="1" stroke="#000000" stroke-opacity="1" stroke-width="3.2"/>
<path clip-path="url(#clip432)" d="M590.951 1097.39 L579.639 1092.7 L574.951 1081.39 L579.639 1070.08 L590.951 1065.39 L602.263 1070.08 L606.951 1081.39 L602.263 1092.7 Z" fill="#009af9" fill-rule="evenodd" fill-opacity="1" stroke="#000000" stroke-opacity="1" stroke-width="3.2"/>
<path clip-path="url(#clip432)" d="M697.084 887.622 L685.772 882.934 L681.084 871.622 L685.772 860.31 L697.084 855.622 L708.396 860.31 L713.084 871.622 L708.396 882.934 Z" fill="#009af9" fill-rule="evenodd" fill-opacity="1" stroke="#000000" stroke-opacity="1" stroke-width="3.2"/>
<path clip-path="url(#clip432)" d="M803.217 1019.97 L791.905 1015.28 L787.217 1003.97 L791.905 992.653 L803.217 987.965 L814.529 992.653 L819.217 1003.97 L814.529 1015.28 Z" fill="#009af9" fill-rule="evenodd" fill-opacity="1" stroke="#000000" stroke-opacity="1" stroke-width="3.2"/>
<path clip-path="url(#clip432)" d="M909.35 1228.14 L898.038 1223.46 L893.35 1212.14 L898.038 1200.83 L909.35 1196.14 L920.662 1200.83 L925.35 1212.14 L920.662 1223.46 Z" fill="#009af9" fill-rule="evenodd" fill-opacity="1" stroke="#000000" stroke-opacity="1" stroke-width="3.2"/>
<path clip-path="url(#clip432)" d="M1015.48 1010.2 L1004.17 1005.51 L999.482 994.201 L1004.17 982.889 L1015.48 978.201 L1026.79 982.889 L1031.48 994.201 L1026.79 1005.51 Z" fill="#009af9" fill-rule="evenodd" fill-opacity="1" stroke="#000000" stroke-opacity="1" stroke-width="3.2"/>
<path clip-path="url(#clip432)" d="M1121.62 1052.85 L1110.3 1048.16 L1105.62 1036.85 L1110.3 1025.54 L1121.62 1020.85 L1132.93 1025.54 L1137.62 1036.85 L1132.93 1048.16 Z" fill="#009af9" fill-rule="evenodd" fill-opacity="1" stroke="#000000" stroke-opacity="1" stroke-width="3.2"/>
<path clip-path="url(#clip432)" d="M1227.75 1371.33 L1216.44 1366.64 L1211.75 1355.33 L1216.44 1344.02 L1227.75 1339.33 L1239.06 1344.02 L1243.75 1355.33 L1239.06 1366.64 Z" fill="#009af9" fill-rule="evenodd" fill-opacity="1" stroke="#000000" stroke-opacity="1" stroke-width="3.2"/>
<path clip-path="url(#clip432)" d="M1333.88 1480 L1322.57 1475.31 L1317.88 1464 L1322.57 1452.68 L1333.88 1448 L1345.19 1452.68 L1349.88 1464 L1345.19 1475.31 Z" fill="#009af9" fill-rule="evenodd" fill-opacity="1" stroke="#000000" stroke-opacity="1" stroke-width="3.2"/>
<path clip-path="url(#clip432)" d="M1440.01 1233.66 L1428.7 1228.97 L1424.01 1217.66 L1428.7 1206.35 L1440.01 1201.66 L1451.33 1206.35 L1456.01 1217.66 L1451.33 1228.97 Z" fill="#009af9" fill-rule="evenodd" fill-opacity="1" stroke="#000000" stroke-opacity="1" stroke-width="3.2"/>
<path clip-path="url(#clip432)" d="M1546.15 1194.59 L1534.83 1189.91 L1530.15 1178.59 L1534.83 1167.28 L1546.15 1162.59 L1557.46 1167.28 L1562.15 1178.59 L1557.46 1189.91 Z" fill="#009af9" fill-rule="evenodd" fill-opacity="1" stroke="#000000" stroke-opacity="1" stroke-width="3.2"/>
<path clip-path="url(#clip432)" d="M1652.28 1280.19 L1640.97 1275.51 L1636.28 1264.19 L1640.97 1252.88 L1652.28 1248.19 L1663.59 1252.88 L1668.28 1264.19 L1663.59 1275.51 Z" fill="#009af9" fill-rule="evenodd" fill-opacity="1" stroke="#000000" stroke-opacity="1" stroke-width="3.2"/>
<path clip-path="url(#clip432)" d="M1758.41 1256.37 L1747.1 1251.69 L1742.41 1240.37 L1747.1 1229.06 L1758.41 1224.37 L1769.72 1229.06 L1774.41 1240.37 L1769.72 1251.69 Z" fill="#009af9" fill-rule="evenodd" fill-opacity="1" stroke="#000000" stroke-opacity="1" stroke-width="3.2"/>
<path clip-path="url(#clip432)" d="M1864.54 1046.54 L1853.23 1041.85 L1848.54 1030.54 L1853.23 1019.23 L1864.54 1014.54 L1875.86 1019.23 L1880.54 1030.54 L1875.86 1041.85 Z" fill="#009af9" fill-rule="evenodd" fill-opacity="1" stroke="#000000" stroke-opacity="1" stroke-width="3.2"/>
<path clip-path="url(#clip432)" d="M1970.68 476.062 L1959.37 471.374 L1954.68 460.062 L1959.37 448.75 L1970.68 444.062 L1981.99 448.75 L1986.68 460.062 L1981.99 471.374 Z" fill="#009af9" fill-rule="evenodd" fill-opacity="1" stroke="#000000" stroke-opacity="1" stroke-width="3.2"/>
<path clip-path="url(#clip432)" d="M2076.81 239.603 L2065.5 234.915 L2060.81 223.603 L2065.5 212.291 L2076.81 207.603 L2088.12 212.291 L2092.81 223.603 L2088.12 234.915 Z" fill="#009af9" fill-rule="evenodd" fill-opacity="1" stroke="#000000" stroke-opacity="1" stroke-width="3.2"/>
<path clip-path="url(#clip432)" d="M2182.94 327.203 L2171.63 322.515 L2166.94 311.203 L2171.63 299.891 L2182.94 295.203 L2194.26 299.891 L2198.94 311.203 L2194.26 322.515 Z" fill="#009af9" fill-rule="evenodd" fill-opacity="1" stroke="#000000" stroke-opacity="1" stroke-width="3.2"/>
<path clip-path="url(#clip432)" d="M2289.08 104.509 L2277.76 99.8207 L2273.08 88.5087 L2277.76 77.1967 L2289.08 72.5087 L2300.39 77.1967 L2305.08 88.5087 L2300.39 99.8207 Z" fill="#009af9" fill-rule="evenodd" fill-opacity="1" stroke="#000000" stroke-opacity="1" stroke-width="3.2"/>
<polyline clip-path="url(#clip432)" style="stroke:#e26f46; stroke-width:12; stroke-opacity:1; fill:none" points="
  166.42,537.107 272.553,571.056 378.685,527.576 484.818,591.905 590.951,1068.52 697.084,1150.33 803.217,1056.14 909.35,1161.37 1015.48,1338.17 1121.62,954.675 
  1227.75,1250.57 1333.88,1334.64 1440.01,1184.08 1546.15,1143.85 1652.28,1214.59 1758.41,887.237 1864.54,795.395 1970.68,812.29 2076.81,274.226 2182.94,267.427 
  2289.08,134.23 
  "/>
<path clip-path="url(#clip432)" d="M166.42 553.107 L155.108 548.419 L150.42 537.107 L155.108 525.795 L166.42 521.107 L177.732 525.795 L182.42 537.107 L177.732 548.419 Z" fill="#e26f46" fill-rule="evenodd" fill-opacity="1" stroke="#000000" stroke-opacity="1" stroke-width="3.2"/>
<path clip-path="url(#clip432)" d="M272.553 587.056 L261.241 582.368 L256.553 571.056 L261.241 559.744 L272.553 555.056 L283.865 559.744 L288.553 571.056 L283.865 582.368 Z" fill="#e26f46" fill-rule="evenodd" fill-opacity="1" stroke="#000000" stroke-opacity="1" stroke-width="3.2"/>
<path clip-path="url(#clip432)" d="M378.685 543.576 L367.373 538.888 L362.685 527.576 L367.373 516.264 L378.685 511.576 L389.997 516.264 L394.685 527.576 L389.997 538.888 Z" fill="#e26f46" fill-rule="evenodd" fill-opacity="1" stroke="#000000" stroke-opacity="1" stroke-width="3.2"/>
<path clip-path="url(#clip432)" d="M484.818 607.905 L473.506 603.217 L468.818 591.905 L473.506 580.593 L484.818 575.905 L496.13 580.593 L500.818 591.905 L496.13 603.217 Z" fill="#e26f46" fill-rule="evenodd" fill-opacity="1" stroke="#000000" stroke-opacity="1" stroke-width="3.2"/>
<path clip-path="url(#clip432)" d="M590.951 1084.52 L579.639 1079.83 L574.951 1068.52 L579.639 1057.21 L590.951 1052.52 L602.263 1057.21 L606.951 1068.52 L602.263 1079.83 Z" fill="#e26f46" fill-rule="evenodd" fill-opacity="1" stroke="#000000" stroke-opacity="1" stroke-width="3.2"/>
<path clip-path="url(#clip432)" d="M697.084 1166.33 L685.772 1161.64 L681.084 1150.33 L685.772 1139.02 L697.084 1134.33 L708.396 1139.02 L713.084 1150.33 L708.396 1161.64 Z" fill="#e26f46" fill-rule="evenodd" fill-opacity="1" stroke="#000000" stroke-opacity="1" stroke-width="3.2"/>
<path clip-path="url(#clip432)" d="M803.217 1072.14 L791.905 1067.45 L787.217 1056.14 L791.905 1044.83 L803.217 1040.14 L814.529 1044.83 L819.217 1056.14 L814.529 1067.45 Z" fill="#e26f46" fill-rule="evenodd" fill-opacity="1" stroke="#000000" stroke-opacity="1" stroke-width="3.2"/>
<path clip-path="url(#clip432)" d="M909.35 1177.37 L898.038 1172.68 L893.35 1161.37 L898.038 1150.06 L909.35 1145.37 L920.662 1150.06 L925.35 1161.37 L920.662 1172.68 Z" fill="#e26f46" fill-rule="evenodd" fill-opacity="1" stroke="#000000" stroke-opacity="1" stroke-width="3.2"/>
<path clip-path="url(#clip432)" d="M1015.48 1354.17 L1004.17 1349.48 L999.482 1338.17 L1004.17 1326.85 L1015.48 1322.17 L1026.79 1326.85 L1031.48 1338.17 L1026.79 1349.48 Z" fill="#e26f46" fill-rule="evenodd" fill-opacity="1" stroke="#000000" stroke-opacity="1" stroke-width="3.2"/>
<path clip-path="url(#clip432)" d="M1121.62 970.675 L1110.3 965.987 L1105.62 954.675 L1110.3 943.363 L1121.62 938.675 L1132.93 943.363 L1137.62 954.675 L1132.93 965.987 Z" fill="#e26f46" fill-rule="evenodd" fill-opacity="1" stroke="#000000" stroke-opacity="1" stroke-width="3.2"/>
<path clip-path="url(#clip432)" d="M1227.75 1266.57 L1216.44 1261.88 L1211.75 1250.57 L1216.44 1239.26 L1227.75 1234.57 L1239.06 1239.26 L1243.75 1250.57 L1239.06 1261.88 Z" fill="#e26f46" fill-rule="evenodd" fill-opacity="1" stroke="#000000" stroke-opacity="1" stroke-width="3.2"/>
<path clip-path="url(#clip432)" d="M1333.88 1350.64 L1322.57 1345.95 L1317.88 1334.64 L1322.57 1323.33 L1333.88 1318.64 L1345.19 1323.33 L1349.88 1334.64 L1345.19 1345.95 Z" fill="#e26f46" fill-rule="evenodd" fill-opacity="1" stroke="#000000" stroke-opacity="1" stroke-width="3.2"/>
<path clip-path="url(#clip432)" d="M1440.01 1200.08 L1428.7 1195.39 L1424.01 1184.08 L1428.7 1172.77 L1440.01 1168.08 L1451.33 1172.77 L1456.01 1184.08 L1451.33 1195.39 Z" fill="#e26f46" fill-rule="evenodd" fill-opacity="1" stroke="#000000" stroke-opacity="1" stroke-width="3.2"/>
<path clip-path="url(#clip432)" d="M1546.15 1159.85 L1534.83 1155.16 L1530.15 1143.85 L1534.83 1132.54 L1546.15 1127.85 L1557.46 1132.54 L1562.15 1143.85 L1557.46 1155.16 Z" fill="#e26f46" fill-rule="evenodd" fill-opacity="1" stroke="#000000" stroke-opacity="1" stroke-width="3.2"/>
<path clip-path="url(#clip432)" d="M1652.28 1230.59 L1640.97 1225.9 L1636.28 1214.59 L1640.97 1203.28 L1652.28 1198.59 L1663.59 1203.28 L1668.28 1214.59 L1663.59 1225.9 Z" fill="#e26f46" fill-rule="evenodd" fill-opacity="1" stroke="#000000" stroke-opacity="1" stroke-width="3.2"/>
<path clip-path="url(#clip432)" d="M1758.41 903.237 L1747.1 898.549 L1742.41 887.237 L1747.1 875.925 L1758.41 871.237 L1769.72 875.925 L1774.41 887.237 L1769.72 898.549 Z" fill="#e26f46" fill-rule="evenodd" fill-opacity="1" stroke="#000000" stroke-opacity="1" stroke-width="3.2"/>
<path clip-path="url(#clip432)" d="M1864.54 811.395 L1853.23 806.707 L1848.54 795.395 L1853.23 784.083 L1864.54 779.395 L1875.86 784.083 L1880.54 795.395 L1875.86 806.707 Z" fill="#e26f46" fill-rule="evenodd" fill-opacity="1" stroke="#000000" stroke-opacity="1" stroke-width="3.2"/>
<path clip-path="url(#clip432)" d="M1970.68 828.29 L1959.37 823.602 L1954.68 812.29 L1959.37 800.978 L1970.68 796.29 L1981.99 800.978 L1986.68 812.29 L1981.99 823.602 Z" fill="#e26f46" fill-rule="evenodd" fill-opacity="1" stroke="#000000" stroke-opacity="1" stroke-width="3.2"/>
<path clip-path="url(#clip432)" d="M2076.81 290.226 L2065.5 285.538 L2060.81 274.226 L2065.5 262.914 L2076.81 258.226 L2088.12 262.914 L2092.81 274.226 L2088.12 285.538 Z" fill="#e26f46" fill-rule="evenodd" fill-opacity="1" stroke="#000000" stroke-opacity="1" stroke-width="3.2"/>
<path clip-path="url(#clip432)" d="M2182.94 283.427 L2171.63 278.739 L2166.94 267.427 L2171.63 256.115 L2182.94 251.427 L2194.26 256.115 L2198.94 267.427 L2194.26 278.739 Z" fill="#e26f46" fill-rule="evenodd" fill-opacity="1" stroke="#000000" stroke-opacity="1" stroke-width="3.2"/>
<path clip-path="url(#clip432)" d="M2289.08 150.23 L2277.76 145.542 L2273.08 134.23 L2277.76 122.918 L2289.08 118.23 L2300.39 122.918 L2305.08 134.23 L2300.39 145.542 Z" fill="#e26f46" fill-rule="evenodd" fill-opacity="1" stroke="#000000" stroke-opacity="1" stroke-width="3.2"/>
<polyline clip-path="url(#clip432)" style="stroke:#3da44d; stroke-width:12; stroke-opacity:1; fill:none" points="
  166.42,537.107 272.553,571.056 378.685,606.751 484.818,632.657 590.951,995.172 697.084,1150.27 803.217,1056.13 909.35,1161.37 1015.48,1338.17 1121.62,954.675 
  1227.75,1250.57 1333.88,1334.64 1440.01,1184.08 1546.15,1143.85 1652.28,1214.59 1758.41,887.237 1864.54,795.394 1970.68,812.29 2076.81,274.226 2182.94,267.427 
  2289.08,134.231 
  "/>
<path clip-path="url(#clip432)" d="M166.42 553.107 L155.108 548.419 L150.42 537.107 L155.108 525.795 L166.42 521.107 L177.732 525.795 L182.42 537.107 L177.732 548.419 Z" fill="#3da44d" fill-rule="evenodd" fill-opacity="1" stroke="#000000" stroke-opacity="1" stroke-width="3.2"/>
<path clip-path="url(#clip432)" d="M272.553 587.056 L261.241 582.368 L256.553 571.056 L261.241 559.744 L272.553 555.056 L283.865 559.744 L288.553 571.056 L283.865 582.368 Z" fill="#3da44d" fill-rule="evenodd" fill-opacity="1" stroke="#000000" stroke-opacity="1" stroke-width="3.2"/>
<path clip-path="url(#clip432)" d="M378.685 622.751 L367.373 618.063 L362.685 606.751 L367.373 595.439 L378.685 590.751 L389.997 595.439 L394.685 606.751 L389.997 618.063 Z" fill="#3da44d" fill-rule="evenodd" fill-opacity="1" stroke="#000000" stroke-opacity="1" stroke-width="3.2"/>
<path clip-path="url(#clip432)" d="M484.818 648.657 L473.506 643.969 L468.818 632.657 L473.506 621.345 L484.818 616.657 L496.13 621.345 L500.818 632.657 L496.13 643.969 Z" fill="#3da44d" fill-rule="evenodd" fill-opacity="1" stroke="#000000" stroke-opacity="1" stroke-width="3.2"/>
<path clip-path="url(#clip432)" d="M590.951 1011.17 L579.639 1006.48 L574.951 995.172 L579.639 983.86 L590.951 979.172 L602.263 983.86 L606.951 995.172 L602.263 1006.48 Z" fill="#3da44d" fill-rule="evenodd" fill-opacity="1" stroke="#000000" stroke-opacity="1" stroke-width="3.2"/>
<path clip-path="url(#clip432)" d="M697.084 1166.27 L685.772 1161.58 L681.084 1150.27 L685.772 1138.96 L697.084 1134.27 L708.396 1138.96 L713.084 1150.27 L708.396 1161.58 Z" fill="#3da44d" fill-rule="evenodd" fill-opacity="1" stroke="#000000" stroke-opacity="1" stroke-width="3.2"/>
<path clip-path="url(#clip432)" d="M803.217 1072.13 L791.905 1067.45 L787.217 1056.13 L791.905 1044.82 L803.217 1040.13 L814.529 1044.82 L819.217 1056.13 L814.529 1067.45 Z" fill="#3da44d" fill-rule="evenodd" fill-opacity="1" stroke="#000000" stroke-opacity="1" stroke-width="3.2"/>
<path clip-path="url(#clip432)" d="M909.35 1177.37 L898.038 1172.68 L893.35 1161.37 L898.038 1150.06 L909.35 1145.37 L920.662 1150.06 L925.35 1161.37 L920.662 1172.68 Z" fill="#3da44d" fill-rule="evenodd" fill-opacity="1" stroke="#000000" stroke-opacity="1" stroke-width="3.2"/>
<path clip-path="url(#clip432)" d="M1015.48 1354.17 L1004.17 1349.48 L999.482 1338.17 L1004.17 1326.85 L1015.48 1322.17 L1026.79 1326.85 L1031.48 1338.17 L1026.79 1349.48 Z" fill="#3da44d" fill-rule="evenodd" fill-opacity="1" stroke="#000000" stroke-opacity="1" stroke-width="3.2"/>
<path clip-path="url(#clip432)" d="M1121.62 970.675 L1110.3 965.987 L1105.62 954.675 L1110.3 943.363 L1121.62 938.675 L1132.93 943.363 L1137.62 954.675 L1132.93 965.987 Z" fill="#3da44d" fill-rule="evenodd" fill-opacity="1" stroke="#000000" stroke-opacity="1" stroke-width="3.2"/>
<path clip-path="url(#clip432)" d="M1227.75 1266.57 L1216.44 1261.88 L1211.75 1250.57 L1216.44 1239.26 L1227.75 1234.57 L1239.06 1239.26 L1243.75 1250.57 L1239.06 1261.88 Z" fill="#3da44d" fill-rule="evenodd" fill-opacity="1" stroke="#000000" stroke-opacity="1" stroke-width="3.2"/>
<path clip-path="url(#clip432)" d="M1333.88 1350.64 L1322.57 1345.95 L1317.88 1334.64 L1322.57 1323.33 L1333.88 1318.64 L1345.19 1323.33 L1349.88 1334.64 L1345.19 1345.95 Z" fill="#3da44d" fill-rule="evenodd" fill-opacity="1" stroke="#000000" stroke-opacity="1" stroke-width="3.2"/>
<path clip-path="url(#clip432)" d="M1440.01 1200.08 L1428.7 1195.39 L1424.01 1184.08 L1428.7 1172.77 L1440.01 1168.08 L1451.33 1172.77 L1456.01 1184.08 L1451.33 1195.39 Z" fill="#3da44d" fill-rule="evenodd" fill-opacity="1" stroke="#000000" stroke-opacity="1" stroke-width="3.2"/>
<path clip-path="url(#clip432)" d="M1546.15 1159.85 L1534.83 1155.16 L1530.15 1143.85 L1534.83 1132.54 L1546.15 1127.85 L1557.46 1132.54 L1562.15 1143.85 L1557.46 1155.16 Z" fill="#3da44d" fill-rule="evenodd" fill-opacity="1" stroke="#000000" stroke-opacity="1" stroke-width="3.2"/>
<path clip-path="url(#clip432)" d="M1652.28 1230.59 L1640.97 1225.9 L1636.28 1214.59 L1640.97 1203.28 L1652.28 1198.59 L1663.59 1203.28 L1668.28 1214.59 L1663.59 1225.9 Z" fill="#3da44d" fill-rule="evenodd" fill-opacity="1" stroke="#000000" stroke-opacity="1" stroke-width="3.2"/>
<path clip-path="url(#clip432)" d="M1758.41 903.237 L1747.1 898.549 L1742.41 887.237 L1747.1 875.925 L1758.41 871.237 L1769.72 875.925 L1774.41 887.237 L1769.72 898.549 Z" fill="#3da44d" fill-rule="evenodd" fill-opacity="1" stroke="#000000" stroke-opacity="1" stroke-width="3.2"/>
<path clip-path="url(#clip432)" d="M1864.54 811.394 L1853.23 806.706 L1848.54 795.394 L1853.23 784.082 L1864.54 779.394 L1875.86 784.082 L1880.54 795.394 L1875.86 806.706 Z" fill="#3da44d" fill-rule="evenodd" fill-opacity="1" stroke="#000000" stroke-opacity="1" stroke-width="3.2"/>
<path clip-path="url(#clip432)" d="M1970.68 828.29 L1959.37 823.602 L1954.68 812.29 L1959.37 800.978 L1970.68 796.29 L1981.99 800.978 L1986.68 812.29 L1981.99 823.602 Z" fill="#3da44d" fill-rule="evenodd" fill-opacity="1" stroke="#000000" stroke-opacity="1" stroke-width="3.2"/>
<path clip-path="url(#clip432)" d="M2076.81 290.226 L2065.5 285.538 L2060.81 274.226 L2065.5 262.914 L2076.81 258.226 L2088.12 262.914 L2092.81 274.226 L2088.12 285.538 Z" fill="#3da44d" fill-rule="evenodd" fill-opacity="1" stroke="#000000" stroke-opacity="1" stroke-width="3.2"/>
<path clip-path="url(#clip432)" d="M2182.94 283.427 L2171.63 278.739 L2166.94 267.427 L2171.63 256.115 L2182.94 251.427 L2194.26 256.115 L2198.94 267.427 L2194.26 278.739 Z" fill="#3da44d" fill-rule="evenodd" fill-opacity="1" stroke="#000000" stroke-opacity="1" stroke-width="3.2"/>
<path clip-path="url(#clip432)" d="M2289.08 150.231 L2277.76 145.543 L2273.08 134.231 L2277.76 122.919 L2289.08 118.231 L2300.39 122.919 L2305.08 134.231 L2300.39 145.543 Z" fill="#3da44d" fill-rule="evenodd" fill-opacity="1" stroke="#000000" stroke-opacity="1" stroke-width="3.2"/>
<path clip-path="url(#clip430)" d="
M1722.73 1456.66 L2277.76 1456.66 L2277.76 1214.74 L1722.73 1214.74  Z
  " fill="#ffffff" fill-rule="evenodd" fill-opacity="1"/>
<polyline clip-path="url(#clip430)" style="stroke:#000000; stroke-width:4; stroke-opacity:1; fill:none" points="
  1722.73,1456.66 2277.76,1456.66 2277.76,1214.74 1722.73,1214.74 1722.73,1456.66 
  "/>
<polyline clip-path="url(#clip430)" style="stroke:#009af9; stroke-width:4; stroke-opacity:1; fill:none" points="
  1747.73,1275.22 1897.73,1275.22 
  "/>
<path clip-path="url(#clip430)" d="M1822.73 1300.82 L1804.63 1293.32 L1797.13 1275.22 L1804.63 1257.12 L1822.73 1249.62 L1840.83 1257.12 L1848.33 1275.22 L1840.83 1293.32 Z" fill="#009af9" fill-rule="evenodd" fill-opacity="1" stroke="#000000" stroke-opacity="1" stroke-width="5.12"/>
<path clip-path="url(#clip430)" d="M 0 0 M1922.73 1257.94 L1927.41 1257.94 L1927.41 1272.11 L1944.4 1272.11 L1944.4 1257.94 L1949.08 1257.94 L1949.08 1292.5 L1944.4 1292.5 L1944.4 1276.04 L1927.41 1276.04 L1927.41 1292.5 L1922.73 1292.5 L1922.73 1257.94 Z" fill="#000000" fill-rule="evenodd" fill-opacity="1" /><path clip-path="url(#clip430)" d="M 0 0 M1975.09 1266.57 L1965.72 1279.19 L1975.58 1292.5 L1970.56 1292.5 L1963.01 1282.31 L1955.46 1292.5 L1950.44 1292.5 L1960.51 1278.93 L1951.3 1266.57 L1956.32 1266.57 L1963.2 1275.81 L1970.07 1266.57 L1975.09 1266.57 Z" fill="#000000" fill-rule="evenodd" fill-opacity="1" /><polyline clip-path="url(#clip430)" style="stroke:#e26f46; stroke-width:4; stroke-opacity:1; fill:none" points="
  1747.73,1335.7 1897.73,1335.7 
  "/>
<path clip-path="url(#clip430)" d="M1822.73 1361.3 L1804.63 1353.8 L1797.13 1335.7 L1804.63 1317.6 L1822.73 1310.1 L1840.83 1317.6 L1848.33 1335.7 L1840.83 1353.8 Z" fill="#e26f46" fill-rule="evenodd" fill-opacity="1" stroke="#000000" stroke-opacity="1" stroke-width="5.12"/>
<path clip-path="url(#clip430)" d="M 0 0 M1936.58 1355.39 Q1934.77 1360.02 1933.06 1361.43 Q1931.34 1362.84 1928.47 1362.84 L1925.07 1362.84 L1925.07 1359.28 L1927.57 1359.28 Q1929.33 1359.28 1930.3 1358.44 Q1931.28 1357.61 1932.46 1354.51 L1933.22 1352.56 L1922.73 1327.05 L1927.25 1327.05 L1935.35 1347.33 L1943.45 1327.05 L1947.96 1327.05 L1936.58 1355.39 Z" fill="#000000" fill-rule="evenodd" fill-opacity="1" /><path clip-path="url(#clip430)" d="M 0 0 M1973.98 1337.33 L1973.98 1352.98 L1969.72 1352.98 L1969.72 1337.47 Q1969.72 1333.79 1968.29 1331.96 Q1966.85 1330.13 1963.98 1330.13 Q1960.53 1330.13 1958.54 1332.33 Q1956.55 1334.53 1956.55 1338.33 L1956.55 1352.98 L1952.27 1352.98 L1952.27 1316.96 L1956.55 1316.96 L1956.55 1331.08 Q1958.08 1328.74 1960.14 1327.59 Q1962.22 1326.43 1964.93 1326.43 Q1969.4 1326.43 1971.69 1329.21 Q1973.98 1331.96 1973.98 1337.33 Z" fill="#000000" fill-rule="evenodd" fill-opacity="1" /><path clip-path="url(#clip430)" d="M 0 0 M1990.23 1339.95 Q1985.07 1339.95 1983.08 1341.13 Q1981.09 1342.31 1981.09 1345.16 Q1981.09 1347.42 1982.57 1348.77 Q1984.08 1350.09 1986.65 1350.09 Q1990.19 1350.09 1992.32 1347.59 Q1994.47 1345.06 1994.47 1340.9 L1994.47 1339.95 L1990.23 1339.95 M1998.73 1338.19 L1998.73 1352.98 L1994.47 1352.98 L1994.47 1349.04 Q1993.01 1351.41 1990.84 1352.54 Q1988.66 1353.65 1985.51 1353.65 Q1981.53 1353.65 1979.17 1351.43 Q1976.83 1349.18 1976.83 1345.43 Q1976.83 1341.06 1979.75 1338.84 Q1982.69 1336.61 1988.5 1336.61 L1994.47 1336.61 L1994.47 1336.2 Q1994.47 1333.26 1992.52 1331.66 Q1990.6 1330.04 1987.11 1330.04 Q1984.89 1330.04 1982.78 1330.57 Q1980.67 1331.1 1978.73 1332.17 L1978.73 1328.23 Q1981.07 1327.33 1983.27 1326.89 Q1985.46 1326.43 1987.55 1326.43 Q1993.17 1326.43 1995.95 1329.35 Q1998.73 1332.26 1998.73 1338.19 Z" fill="#000000" fill-rule="evenodd" fill-opacity="1" /><path clip-path="url(#clip430)" d="M 0 0 M2007.41 1319.69 L2007.41 1327.05 L2016.18 1327.05 L2016.18 1330.36 L2007.41 1330.36 L2007.41 1344.44 Q2007.41 1347.61 2008.27 1348.51 Q2009.15 1349.41 2011.81 1349.41 L2016.18 1349.41 L2016.18 1352.98 L2011.81 1352.98 Q2006.88 1352.98 2005 1351.15 Q2003.13 1349.3 2003.13 1344.44 L2003.13 1330.36 L2000 1330.36 L2000 1327.05 L2003.13 1327.05 L2003.13 1319.69 L2007.41 1319.69 Z" fill="#000000" fill-rule="evenodd" fill-opacity="1" /><path clip-path="url(#clip430)" d="M 0 0 M2040.35 1360.85 L2040.35 1364.16 L2015.72 1364.16 L2015.72 1360.85 L2040.35 1360.85 Z" fill="#000000" fill-rule="evenodd" fill-opacity="1" /><path clip-path="url(#clip430)" d="M 0 0 M2065 1332.03 Q2066.6 1329.16 2068.82 1327.79 Q2071.04 1326.43 2074.05 1326.43 Q2078.1 1326.43 2080.3 1329.28 Q2082.5 1332.1 2082.5 1337.33 L2082.5 1352.98 L2078.22 1352.98 L2078.22 1337.47 Q2078.22 1333.74 2076.9 1331.94 Q2075.58 1330.13 2072.87 1330.13 Q2069.56 1330.13 2067.64 1332.33 Q2065.72 1334.53 2065.72 1338.33 L2065.72 1352.98 L2061.44 1352.98 L2061.44 1337.47 Q2061.44 1333.72 2060.12 1331.94 Q2058.8 1330.13 2056.04 1330.13 Q2052.78 1330.13 2050.86 1332.35 Q2048.94 1334.55 2048.94 1338.33 L2048.94 1352.98 L2044.65 1352.98 L2044.65 1327.05 L2048.94 1327.05 L2048.94 1331.08 Q2050.39 1328.7 2052.43 1327.56 Q2054.47 1326.43 2057.27 1326.43 Q2060.09 1326.43 2062.06 1327.86 Q2064.05 1329.3 2065 1332.03 Z" fill="#000000" fill-rule="evenodd" fill-opacity="1" /><path clip-path="url(#clip430)" d="M 0 0 M2086.97 1327.05 L2091.23 1327.05 L2091.23 1352.98 L2086.97 1352.98 L2086.97 1327.05 M2086.97 1316.96 L2091.23 1316.96 L2091.23 1322.35 L2086.97 1322.35 L2086.97 1316.96 Z" fill="#000000" fill-rule="evenodd" fill-opacity="1" /><path clip-path="url(#clip430)" d="M 0 0 M2117.25 1337.33 L2117.25 1352.98 L2112.99 1352.98 L2112.99 1337.47 Q2112.99 1333.79 2111.55 1331.96 Q2110.12 1330.13 2107.25 1330.13 Q2103.8 1330.13 2101.81 1332.33 Q2099.82 1334.53 2099.82 1338.33 L2099.82 1352.98 L2095.53 1352.98 L2095.53 1327.05 L2099.82 1327.05 L2099.82 1331.08 Q2101.34 1328.74 2103.4 1327.59 Q2105.49 1326.43 2108.2 1326.43 Q2112.66 1326.43 2114.95 1329.21 Q2117.25 1331.96 2117.25 1337.33 Z" fill="#000000" fill-rule="evenodd" fill-opacity="1" /><path clip-path="url(#clip430)" d="M 0 0 M2121.71 1327.05 L2125.97 1327.05 L2125.97 1352.98 L2121.71 1352.98 L2121.71 1327.05 M2121.71 1316.96 L2125.97 1316.96 L2125.97 1322.35 L2121.71 1322.35 L2121.71 1316.96 Z" fill="#000000" fill-rule="evenodd" fill-opacity="1" /><path clip-path="url(#clip430)" d="M 0 0 M2150.63 1332.03 Q2152.22 1329.16 2154.45 1327.79 Q2156.67 1326.43 2159.68 1326.43 Q2163.73 1326.43 2165.93 1329.28 Q2168.13 1332.1 2168.13 1337.33 L2168.13 1352.98 L2163.84 1352.98 L2163.84 1337.47 Q2163.84 1333.74 2162.52 1331.94 Q2161.2 1330.13 2158.5 1330.13 Q2155.19 1330.13 2153.26 1332.33 Q2151.34 1334.53 2151.34 1338.33 L2151.34 1352.98 L2147.06 1352.98 L2147.06 1337.47 Q2147.06 1333.72 2145.74 1331.94 Q2144.42 1330.13 2141.67 1330.13 Q2138.4 1330.13 2136.48 1332.35 Q2134.56 1334.55 2134.56 1338.33 L2134.56 1352.98 L2130.28 1352.98 L2130.28 1327.05 L2134.56 1327.05 L2134.56 1331.08 Q2136.02 1328.7 2138.06 1327.56 Q2140.09 1326.43 2142.89 1326.43 Q2145.72 1326.43 2147.69 1327.86 Q2149.68 1329.3 2150.63 1332.03 Z" fill="#000000" fill-rule="evenodd" fill-opacity="1" /><path clip-path="url(#clip430)" d="M 0 0 M2184.38 1339.95 Q2179.21 1339.95 2177.22 1341.13 Q2175.23 1342.31 2175.23 1345.16 Q2175.23 1347.42 2176.71 1348.77 Q2178.22 1350.09 2180.79 1350.09 Q2184.33 1350.09 2186.46 1347.59 Q2188.61 1345.06 2188.61 1340.9 L2188.61 1339.95 L2184.38 1339.95 M2192.87 1338.19 L2192.87 1352.98 L2188.61 1352.98 L2188.61 1349.04 Q2187.15 1351.41 2184.98 1352.54 Q2182.8 1353.65 2179.65 1353.65 Q2175.67 1353.65 2173.31 1351.43 Q2170.97 1349.18 2170.97 1345.43 Q2170.97 1341.06 2173.89 1338.84 Q2176.83 1336.61 2182.64 1336.61 L2188.61 1336.61 L2188.61 1336.2 Q2188.61 1333.26 2186.67 1331.66 Q2184.75 1330.04 2181.25 1330.04 Q2179.03 1330.04 2176.92 1330.57 Q2174.82 1331.1 2172.87 1332.17 L2172.87 1328.23 Q2175.21 1327.33 2177.41 1326.89 Q2179.61 1326.43 2181.69 1326.43 Q2187.32 1326.43 2190.09 1329.35 Q2192.87 1332.26 2192.87 1338.19 Z" fill="#000000" fill-rule="evenodd" fill-opacity="1" /><path clip-path="url(#clip430)" d="M 0 0 M2218.89 1327.05 L2209.51 1339.67 L2219.38 1352.98 L2214.35 1352.98 L2206.81 1342.79 L2199.26 1352.98 L2194.24 1352.98 L2204.31 1339.41 L2195.09 1327.05 L2200.12 1327.05 L2206.99 1336.29 L2213.87 1327.05 L2218.89 1327.05 Z" fill="#000000" fill-rule="evenodd" fill-opacity="1" /><polyline clip-path="url(#clip430)" style="stroke:#3da44d; stroke-width:4; stroke-opacity:1; fill:none" points="
  1747.73,1396.18 1897.73,1396.18 
  "/>
<path clip-path="url(#clip430)" d="M1822.73 1421.78 L1804.63 1414.28 L1797.13 1396.18 L1804.63 1378.08 L1822.73 1370.58 L1840.83 1378.08 L1848.33 1396.18 L1840.83 1414.28 Z" fill="#3da44d" fill-rule="evenodd" fill-opacity="1" stroke="#000000" stroke-opacity="1" stroke-width="5.12"/>
<path clip-path="url(#clip430)" d="M 0 0 M1936.58 1415.87 Q1934.77 1420.5 1933.06 1421.91 Q1931.34 1423.32 1928.47 1423.32 L1925.07 1423.32 L1925.07 1419.76 L1927.57 1419.76 Q1929.33 1419.76 1930.3 1418.92 Q1931.28 1418.09 1932.46 1414.99 L1933.22 1413.04 L1922.73 1387.53 L1927.25 1387.53 L1935.35 1407.81 L1943.45 1387.53 L1947.96 1387.53 L1936.58 1415.87 Z" fill="#000000" fill-rule="evenodd" fill-opacity="1" /><path clip-path="url(#clip430)" d="M 0 0 M1973.98 1397.81 L1973.98 1413.46 L1969.72 1413.46 L1969.72 1397.95 Q1969.72 1394.27 1968.29 1392.44 Q1966.85 1390.61 1963.98 1390.61 Q1960.53 1390.61 1958.54 1392.81 Q1956.55 1395.01 1956.55 1398.81 L1956.55 1413.46 L1952.27 1413.46 L1952.27 1377.44 L1956.55 1377.44 L1956.55 1391.56 Q1958.08 1389.22 1960.14 1388.07 Q1962.22 1386.91 1964.93 1386.91 Q1969.4 1386.91 1971.69 1389.69 Q1973.98 1392.44 1973.98 1397.81 Z" fill="#000000" fill-rule="evenodd" fill-opacity="1" /><path clip-path="url(#clip430)" d="M 0 0 M1990.23 1400.43 Q1985.07 1400.43 1983.08 1401.61 Q1981.09 1402.79 1981.09 1405.64 Q1981.09 1407.9 1982.57 1409.25 Q1984.08 1410.57 1986.65 1410.57 Q1990.19 1410.57 1992.32 1408.07 Q1994.47 1405.54 1994.47 1401.38 L1994.47 1400.43 L1990.23 1400.43 M1998.73 1398.67 L1998.73 1413.46 L1994.47 1413.46 L1994.47 1409.52 Q1993.01 1411.89 1990.84 1413.02 Q1988.66 1414.13 1985.51 1414.13 Q1981.53 1414.13 1979.17 1411.91 Q1976.83 1409.66 1976.83 1405.91 Q1976.83 1401.54 1979.75 1399.32 Q1982.69 1397.09 1988.5 1397.09 L1994.47 1397.09 L1994.47 1396.68 Q1994.47 1393.74 1992.52 1392.14 Q1990.6 1390.52 1987.11 1390.52 Q1984.89 1390.52 1982.78 1391.05 Q1980.67 1391.58 1978.73 1392.65 L1978.73 1388.71 Q1981.07 1387.81 1983.27 1387.37 Q1985.46 1386.91 1987.55 1386.91 Q1993.17 1386.91 1995.95 1389.83 Q1998.73 1392.74 1998.73 1398.67 Z" fill="#000000" fill-rule="evenodd" fill-opacity="1" /><path clip-path="url(#clip430)" d="M 0 0 M2007.41 1380.17 L2007.41 1387.53 L2016.18 1387.53 L2016.18 1390.84 L2007.41 1390.84 L2007.41 1404.92 Q2007.41 1408.09 2008.27 1408.99 Q2009.15 1409.89 2011.81 1409.89 L2016.18 1409.89 L2016.18 1413.46 L2011.81 1413.46 Q2006.88 1413.46 2005 1411.63 Q2003.13 1409.78 2003.13 1404.92 L2003.13 1390.84 L2000 1390.84 L2000 1387.53 L2003.13 1387.53 L2003.13 1380.17 L2007.41 1380.17 Z" fill="#000000" fill-rule="evenodd" fill-opacity="1" /><path clip-path="url(#clip430)" d="M 0 0 M2040.35 1421.33 L2040.35 1424.64 L2015.72 1424.64 L2015.72 1421.33 L2040.35 1421.33 Z" fill="#000000" fill-rule="evenodd" fill-opacity="1" /><path clip-path="url(#clip430)" d="M 0 0 M2063.43 1400.52 Q2063.43 1395.82 2061.48 1393.16 Q2059.56 1390.47 2056.18 1390.47 Q2052.8 1390.47 2050.86 1393.16 Q2048.94 1395.82 2048.94 1400.52 Q2048.94 1405.22 2050.86 1407.9 Q2052.8 1410.57 2056.18 1410.57 Q2059.56 1410.57 2061.48 1407.9 Q2063.43 1405.22 2063.43 1400.52 M2048.94 1391.47 Q2050.28 1389.15 2052.32 1388.04 Q2054.38 1386.91 2057.22 1386.91 Q2061.95 1386.91 2064.89 1390.66 Q2067.85 1394.41 2067.85 1400.52 Q2067.85 1406.63 2064.89 1410.38 Q2061.95 1414.13 2057.22 1414.13 Q2054.38 1414.13 2052.32 1413.02 Q2050.28 1411.89 2048.94 1409.57 L2048.94 1413.46 L2044.65 1413.46 L2044.65 1377.44 L2048.94 1377.44 L2048.94 1391.47 Z" fill="#000000" fill-rule="evenodd" fill-opacity="1" /><path clip-path="url(#clip430)" d="M 0 0 M2084.1 1400.43 Q2078.94 1400.43 2076.95 1401.61 Q2074.95 1402.79 2074.95 1405.64 Q2074.95 1407.9 2076.44 1409.25 Q2077.94 1410.57 2080.51 1410.57 Q2084.05 1410.57 2086.18 1408.07 Q2088.33 1405.54 2088.33 1401.38 L2088.33 1400.43 L2084.1 1400.43 M2092.59 1398.67 L2092.59 1413.46 L2088.33 1413.46 L2088.33 1409.52 Q2086.88 1411.89 2084.7 1413.02 Q2082.52 1414.13 2079.38 1414.13 Q2075.39 1414.13 2073.03 1411.91 Q2070.7 1409.66 2070.7 1405.91 Q2070.7 1401.54 2073.61 1399.32 Q2076.55 1397.09 2082.36 1397.09 L2088.33 1397.09 L2088.33 1396.68 Q2088.33 1393.74 2086.39 1392.14 Q2084.47 1390.52 2080.97 1390.52 Q2078.75 1390.52 2076.64 1391.05 Q2074.54 1391.58 2072.59 1392.65 L2072.59 1388.71 Q2074.93 1387.81 2077.13 1387.37 Q2079.33 1386.91 2081.41 1386.91 Q2087.04 1386.91 2089.82 1389.83 Q2092.59 1392.74 2092.59 1398.67 Z" fill="#000000" fill-rule="evenodd" fill-opacity="1" /><path clip-path="url(#clip430)" d="M 0 0 M2107.85 1415.87 Q2106.04 1420.5 2104.33 1421.91 Q2102.62 1423.32 2099.75 1423.32 L2096.34 1423.32 L2096.34 1419.76 L2098.84 1419.76 Q2100.6 1419.76 2101.58 1418.92 Q2102.55 1418.09 2103.73 1414.99 L2104.49 1413.04 L2094.01 1387.53 L2098.52 1387.53 L2106.62 1407.81 L2114.72 1387.53 L2119.24 1387.53 L2107.85 1415.87 Z" fill="#000000" fill-rule="evenodd" fill-opacity="1" /><path clip-path="url(#clip430)" d="M 0 0 M2145.88 1399.43 L2145.88 1401.51 L2126.3 1401.51 Q2126.58 1405.91 2128.94 1408.23 Q2131.32 1410.52 2135.56 1410.52 Q2138.01 1410.52 2140.3 1409.92 Q2142.62 1409.32 2144.89 1408.11 L2144.89 1412.14 Q2142.59 1413.11 2140.19 1413.62 Q2137.78 1414.13 2135.3 1414.13 Q2129.1 1414.13 2125.46 1410.52 Q2121.85 1406.91 2121.85 1400.75 Q2121.85 1394.39 2125.28 1390.66 Q2128.73 1386.91 2134.56 1386.91 Q2139.79 1386.91 2142.82 1390.29 Q2145.88 1393.64 2145.88 1399.43 M2141.62 1398.18 Q2141.57 1394.69 2139.65 1392.6 Q2137.76 1390.52 2134.61 1390.52 Q2131.04 1390.52 2128.89 1392.53 Q2126.76 1394.55 2126.44 1398.2 L2141.62 1398.18 Z" fill="#000000" fill-rule="evenodd" fill-opacity="1" /><path clip-path="url(#clip430)" d="M 0 0 M2166.88 1388.3 L2166.88 1392.33 Q2165.07 1391.4 2163.13 1390.94 Q2161.18 1390.47 2159.1 1390.47 Q2155.93 1390.47 2154.33 1391.45 Q2152.76 1392.42 2152.76 1394.36 Q2152.76 1395.84 2153.89 1396.7 Q2155.02 1397.53 2158.45 1398.3 L2159.91 1398.62 Q2164.45 1399.59 2166.34 1401.38 Q2168.26 1403.14 2168.26 1406.31 Q2168.26 1409.92 2165.39 1412.02 Q2162.55 1414.13 2157.55 1414.13 Q2155.46 1414.13 2153.2 1413.71 Q2150.95 1413.32 2148.45 1412.51 L2148.45 1408.11 Q2150.81 1409.34 2153.1 1409.96 Q2155.39 1410.57 2157.64 1410.57 Q2160.65 1410.57 2162.27 1409.55 Q2163.89 1408.51 2163.89 1406.63 Q2163.89 1404.89 2162.71 1403.97 Q2161.55 1403.04 2157.59 1402.19 L2156.11 1401.84 Q2152.15 1401.01 2150.39 1399.29 Q2148.64 1397.56 2148.64 1394.55 Q2148.64 1390.89 2151.23 1388.9 Q2153.82 1386.91 2158.59 1386.91 Q2160.95 1386.91 2163.03 1387.26 Q2165.12 1387.6 2166.88 1388.3 Z" fill="#000000" fill-rule="evenodd" fill-opacity="1" /><path clip-path="url(#clip430)" d="M 0 0 M2172.73 1387.53 L2176.99 1387.53 L2176.99 1413.46 L2172.73 1413.46 L2172.73 1387.53 M2172.73 1377.44 L2176.99 1377.44 L2176.99 1382.83 L2172.73 1382.83 L2172.73 1377.44 Z" fill="#000000" fill-rule="evenodd" fill-opacity="1" /><path clip-path="url(#clip430)" d="M 0 0 M2193.24 1400.43 Q2188.08 1400.43 2186.09 1401.61 Q2184.1 1402.79 2184.1 1405.64 Q2184.1 1407.9 2185.58 1409.25 Q2187.08 1410.57 2189.65 1410.57 Q2193.2 1410.57 2195.32 1408.07 Q2197.48 1405.54 2197.48 1401.38 L2197.48 1400.43 L2193.24 1400.43 M2201.74 1398.67 L2201.74 1413.46 L2197.48 1413.46 L2197.48 1409.52 Q2196.02 1411.89 2193.84 1413.02 Q2191.67 1414.13 2188.52 1414.13 Q2184.54 1414.13 2182.18 1411.91 Q2179.84 1409.66 2179.84 1405.91 Q2179.84 1401.54 2182.76 1399.32 Q2185.7 1397.09 2191.51 1397.09 L2197.48 1397.09 L2197.48 1396.68 Q2197.48 1393.74 2195.53 1392.14 Q2193.61 1390.52 2190.12 1390.52 Q2187.89 1390.52 2185.79 1391.05 Q2183.68 1391.58 2181.74 1392.65 L2181.74 1388.71 Q2184.07 1387.81 2186.27 1387.37 Q2188.47 1386.91 2190.56 1386.91 Q2196.18 1386.91 2198.96 1389.83 Q2201.74 1392.74 2201.74 1398.67 Z" fill="#000000" fill-rule="evenodd" fill-opacity="1" /><path clip-path="url(#clip430)" d="M 0 0 M2227.76 1397.81 L2227.76 1413.46 L2223.5 1413.46 L2223.5 1397.95 Q2223.5 1394.27 2222.06 1392.44 Q2220.63 1390.61 2217.76 1390.61 Q2214.31 1390.61 2212.32 1392.81 Q2210.32 1395.01 2210.32 1398.81 L2210.32 1413.46 L2206.04 1413.46 L2206.04 1387.53 L2210.32 1387.53 L2210.32 1391.56 Q2211.85 1389.22 2213.91 1388.07 Q2216 1386.91 2218.7 1386.91 Q2223.17 1386.91 2225.46 1389.69 Q2227.76 1392.44 2227.76 1397.81 Z" fill="#000000" fill-rule="evenodd" fill-opacity="1" /></svg>
